<?xml version="1.0" encoding="UTF-8"?>
<svg xmlns="http://www.w3.org/2000/svg" width="1200" height="900" viewBox="0 0 1200 900">
<rect width="100%" height="100%" fill="#1a1a2e"/>
<text x="600" y="30" fill="#e0e0e0" font-size="20" font-family="monospace" text-anchor="middle" font-weight="bold">African Queen Lite — ESP32 Ride-Mode Controller Wiring Diagram v2.1</text>
<text x="600" y="48" fill="#888" font-size="11" font-family="monospace" text-anchor="middle">Honda NX650 Dominator RFVC</text>
<rect x="450" y="80" width="300" height="700" rx="8" fill="#16213e" stroke="#0f3460" stroke-width="2"/>
<text x="600" y="105" fill="#e94560" font-size="16" font-family="monospace" text-anchor="middle" font-weight="bold">ESP32-WROOM-32</text>
<text x="600" y="122" fill="#888" font-size="10" font-family="monospace" text-anchor="middle">AQL Ride-Mode Controller</text>
<text x="460" y="140" fill="#3399FF" font-size="9" font-family="monospace">GPIO 4 MODE_UP</text>
<line x1="450" y1="136" x2="390" y2="136" stroke="#3399FF" stroke-width="2"/>
<circle cx="450" cy="136" r="3" fill="#3399FF"/>
<text x="460" y="159" fill="#3399FF" font-size="9" font-family="monospace">GPIO 5 MODE_DOWN</text>
<line x1="450" y1="155" x2="390" y2="155" stroke="#3399FF" stroke-width="2"/>
<circle cx="450" cy="155" r="3" fill="#3399FF"/>
<text x="460" y="178" fill="#3399FF" font-size="9" font-family="monospace">GPIO16 ENCODER_A</text>
<line x1="450" y1="174" x2="390" y2="174" stroke="#3399FF" stroke-width="2"/>
<circle cx="450" cy="174" r="3" fill="#3399FF"/>
<text x="460" y="197" fill="#3399FF" font-size="9" font-family="monospace">GPIO17 ENCODER_B</text>
<line x1="450" y1="193" x2="390" y2="193" stroke="#3399FF" stroke-width="2"/>
<circle cx="450" cy="193" r="3" fill="#3399FF"/>
<text x="460" y="216" fill="#3399FF" font-size="9" font-family="monospace">GPIO 0 ENCODER_BTN</text>
<line x1="450" y1="212" x2="390" y2="212" stroke="#3399FF" stroke-width="2"/>
<circle cx="450" cy="212" r="3" fill="#3399FF"/>
<text x="460" y="235" fill="#FF9933" font-size="9" font-family="monospace">GPIO18 IGNITION_PULSE</text>
<line x1="450" y1="231" x2="390" y2="231" stroke="#FF9933" stroke-width="2"/>
<circle cx="450" cy="231" r="3" fill="#FF9933"/>
<text x="460" y="254" fill="#3399FF" font-size="9" font-family="monospace">GPIO19 OIL_PRESSURE</text>
<line x1="450" y1="250" x2="390" y2="250" stroke="#3399FF" stroke-width="2"/>
<circle cx="450" cy="250" r="3" fill="#3399FF"/>
<text x="460" y="273" fill="#33CC33" font-size="9" font-family="monospace">GPIO34 THERMISTOR</text>
<line x1="450" y1="269" x2="390" y2="269" stroke="#33CC33" stroke-width="2"/>
<circle cx="450" cy="269" r="3" fill="#33CC33"/>
<text x="460" y="292" fill="#FF3333" font-size="9" font-family="monospace">GPIO35 VOLTAGE_DIVIDER</text>
<line x1="450" y1="288" x2="390" y2="288" stroke="#FF3333" stroke-width="2"/>
<circle cx="450" cy="288" r="3" fill="#FF3333"/>
<text x="460" y="311" fill="#FF3333" font-size="9" font-family="monospace">GPIO36 STATOR_SENSE</text>
<line x1="450" y1="307" x2="390" y2="307" stroke="#FF3333" stroke-width="2"/>
<circle cx="450" cy="307" r="3" fill="#FF3333"/>
<text x="740" y="140" fill="#FF9933" font-size="9" font-family="monospace" text-anchor="end">EXHAUST_VALVE GPIO25</text>
<line x1="750" y1="136" x2="810" y2="136" stroke="#FF9933" stroke-width="2"/>
<circle cx="750" cy="136" r="3" fill="#FF9933"/>
<text x="740" y="159" fill="#FF9933" font-size="9" font-family="monospace" text-anchor="end">AIRBOX_FLAP GPIO26</text>
<line x1="750" y1="155" x2="810" y2="155" stroke="#FF9933" stroke-width="2"/>
<circle cx="750" cy="155" r="3" fill="#FF9933"/>
<text x="740" y="178" fill="#3399FF" font-size="9" font-family="monospace" text-anchor="end">CDI_MAP_A GPIO27</text>
<line x1="750" y1="174" x2="810" y2="174" stroke="#3399FF" stroke-width="2"/>
<circle cx="750" cy="174" r="3" fill="#3399FF"/>
<text x="740" y="197" fill="#3399FF" font-size="9" font-family="monospace" text-anchor="end">CDI_MAP_B GPIO33</text>
<line x1="750" y1="193" x2="810" y2="193" stroke="#3399FF" stroke-width="2"/>
<circle cx="750" cy="193" r="3" fill="#3399FF"/>
<text x="740" y="216" fill="#FF9933" font-size="9" font-family="monospace" text-anchor="end">LED_DATA GPIO32</text>
<line x1="750" y1="212" x2="810" y2="212" stroke="#FF9933" stroke-width="2"/>
<circle cx="750" cy="212" r="3" fill="#FF9933"/>
<text x="740" y="235" fill="#3399FF" font-size="9" font-family="monospace" text-anchor="end">OLED_SDA GPIO21</text>
<line x1="750" y1="231" x2="810" y2="231" stroke="#3399FF" stroke-width="2"/>
<circle cx="750" cy="231" r="3" fill="#3399FF"/>
<text x="740" y="254" fill="#3399FF" font-size="9" font-family="monospace" text-anchor="end">OLED_SCL GPIO22</text>
<line x1="750" y1="250" x2="810" y2="250" stroke="#3399FF" stroke-width="2"/>
<circle cx="750" cy="250" r="3" fill="#3399FF"/>
<rect x="50" y="80" width="220" height="30" rx="4" fill="#16213e" stroke="#3399FF" stroke-width="1.5"/>
<text x="160" y="92" fill="#3399FF" font-size="8" font-family="monospace" text-anchor="middle" font-weight="bold">Handlebar Buttons</text>
<text x="160" y="103" fill="#888" font-size="7" font-family="monospace" text-anchor="middle">Mode+/Mode- Buttons</text>
<rect x="50" y="135" width="220" height="30" rx="4" fill="#16213e" stroke="#3399FF" stroke-width="1.5"/>
<text x="160" y="147" fill="#3399FF" font-size="8" font-family="monospace" text-anchor="middle" font-weight="bold">Rotary Encoder</text>
<text x="160" y="158" fill="#888" font-size="7" font-family="monospace" text-anchor="middle">KY-040 Encoder</text>
<rect x="50" y="190" width="220" height="30" rx="4" fill="#16213e" stroke="#FF9933" stroke-width="1.5"/>
<text x="160" y="202" fill="#FF9933" font-size="8" font-family="monospace" text-anchor="middle" font-weight="bold">Ignition Coil</text>
<text x="160" y="213" fill="#888" font-size="7" font-family="monospace" text-anchor="middle">Pulse Generator Signal</text>
<rect x="50" y="245" width="220" height="30" rx="4" fill="#16213e" stroke="#3399FF" stroke-width="1.5"/>
<text x="160" y="257" fill="#3399FF" font-size="8" font-family="monospace" text-anchor="middle" font-weight="bold">Oil Pressure</text>
<text x="160" y="268" fill="#888" font-size="7" font-family="monospace" text-anchor="middle">Pressure Switch</text>
<rect x="50" y="300" width="220" height="30" rx="4" fill="#16213e" stroke="#33CC33" stroke-width="1.5"/>
<text x="160" y="312" fill="#33CC33" font-size="8" font-family="monospace" text-anchor="middle" font-weight="bold">Thermistor</text>
<text x="160" y="323" fill="#888" font-size="7" font-family="monospace" text-anchor="middle">NTC 10kΩ Cylinder Head</text>
<rect x="50" y="355" width="220" height="30" rx="4" fill="#16213e" stroke="#FF3333" stroke-width="1.5"/>
<text x="160" y="367" fill="#FF3333" font-size="8" font-family="monospace" text-anchor="middle" font-weight="bold">Battery Voltage</text>
<text x="160" y="378" fill="#888" font-size="7" font-family="monospace" text-anchor="middle">R1=100kΩ R2=33kΩ Divider</text>
<rect x="50" y="410" width="220" height="30" rx="4" fill="#16213e" stroke="#FF3333" stroke-width="1.5"/>
<text x="160" y="422" fill="#FF3333" font-size="8" font-family="monospace" text-anchor="middle" font-weight="bold">Stator Voltage</text>
<text x="160" y="433" fill="#888" font-size="7" font-family="monospace" text-anchor="middle">Voltage Divider</text>
<rect x="830" y="80.0" width="240" height="35" rx="4" fill="#16213e" stroke="#FF9933" stroke-width="1.5"/>
<text x="950" y="94.0" fill="#FF9933" font-size="8" font-family="monospace" text-anchor="middle" font-weight="bold">Exhaust Valve</text>
<text x="950" y="106.0" fill="#888" font-size="7" font-family="monospace" text-anchor="middle">PWM Servo / DRV8833</text>
<rect x="830" y="146.0" width="240" height="35" rx="4" fill="#16213e" stroke="#FF9933" stroke-width="1.5"/>
<text x="950" y="160.0" fill="#FF9933" font-size="8" font-family="monospace" text-anchor="middle" font-weight="bold">Airbox Flap</text>
<text x="950" y="172.0" fill="#888" font-size="7" font-family="monospace" text-anchor="middle">PWM Servo / DRV8833</text>
<rect x="830" y="212.0" width="240" height="35" rx="4" fill="#16213e" stroke="#3399FF" stroke-width="1.5"/>
<text x="950" y="226.0" fill="#3399FF" font-size="8" font-family="monospace" text-anchor="middle" font-weight="bold">CDI Map Select</text>
<text x="950" y="238.0" fill="#888" font-size="7" font-family="monospace" text-anchor="middle">Ignitech DC-CDI-P2</text>
<rect x="830" y="278.0" width="240" height="35" rx="4" fill="#16213e" stroke="#FF9933" stroke-width="1.5"/>
<text x="950" y="292.0" fill="#FF9933" font-size="8" font-family="monospace" text-anchor="middle" font-weight="bold">WS2812 LED</text>
<text x="950" y="304.0" fill="#888" font-size="7" font-family="monospace" text-anchor="middle">RGB Mode Indicator</text>
<rect x="830" y="344.0" width="240" height="35" rx="4" fill="#16213e" stroke="#3399FF" stroke-width="1.5"/>
<text x="950" y="358.0" fill="#3399FF" font-size="8" font-family="monospace" text-anchor="middle" font-weight="bold">SSD1306 OLED</text>
<text x="950" y="370.0" fill="#888" font-size="7" font-family="monospace" text-anchor="middle">128x64 I2C Display</text>
<rect x="50" y="700" width="400" height="150" rx="6" fill="#16213e" stroke="#FF3333" stroke-width="2"/>
<text x="250" y="718" fill="#FF3333" font-size="12" font-family="monospace" text-anchor="middle" font-weight="bold">⚡ Power Conditioning (CRITICAL)</text>
<text x="65" y="738" fill="#ccc" font-size="9" font-family="monospace">• 12V Battery → 5A Fuse → TVS SMAJ28A</text>
<text x="65" y="754" fill="#ccc" font-size="9" font-family="monospace">• 470µF + 100nF Decoupling Caps</text>
<text x="65" y="770" fill="#ccc" font-size="9" font-family="monospace">• 1N5408 Reverse Polarity Protection</text>
<text x="65" y="786" fill="#ccc" font-size="9" font-family="monospace">• 7805 → 3.3V LDO (or Mean Well RSD-30G-3.3)</text>
<text x="65" y="802" fill="#ccc" font-size="9" font-family="monospace">• Conformal Coat: MG Chemicals 422B</text>
<text x="65" y="818" fill="#ccc" font-size="9" font-family="monospace">• Mount: Rubber Grommets (McMaster 9485K52)</text>
<rect x="830" y="700" width="260" height="150" rx="6" fill="#16213e" stroke="#555" stroke-width="1"/>
<text x="960" y="718" fill="#e0e0e0" font-size="11" font-family="monospace" text-anchor="middle" font-weight="bold">Wire Color Legend</text>
<line x1="845" y1="738" x2="885" y2="738" stroke="#FF3333" stroke-width="3"/>
<text x="895" y="742" fill="#ccc" font-size="9" font-family="monospace">Red: Power / Battery voltage</text>
<line x1="845" y1="760" x2="885" y2="760" stroke="#3399FF" stroke-width="3"/>
<text x="895" y="764" fill="#ccc" font-size="9" font-family="monospace">Blue: Signal / Digital / I2C</text>
<line x1="845" y1="782" x2="885" y2="782" stroke="#33CC33" stroke-width="3"/>
<text x="895" y="786" fill="#ccc" font-size="9" font-family="monospace">Green: Analog sensor / Ground</text>
<line x1="845" y1="804" x2="885" y2="804" stroke="#FF9933" stroke-width="3"/>
<text x="895" y="808" fill="#ccc" font-size="9" font-family="monospace">Orange: PWM / Digital output</text>
<text x="600" y="892" fill="#555" font-size="9" font-family="monospace" text-anchor="middle">Version 2.1 — 3-Map CDI + DRV8833 Motor Driver + Sunlight Display</text>
</svg>